<?xml version="1.0" encoding="UTF-8"?>
<svg xmlns="http://www.w3.org/2000/svg" xmlns:xlink="http://www.w3.org/1999/xlink" version="1.1" id="Layer_1" x="0px" y="0px" viewBox="0 0 360.36 332.19" style="enable-background:new 0 0 360.36 332.19;" xml:space="preserve">
<style type="text/css">
	.st0{fill:#05C37E;}
</style>
<g>
	<path class="st0" d="M180.04,251.78c-12.12-0.21-23.75-2.51-35.01-6.94c-1.24-0.49-3.15-0.29-4.36,0.34   c-7.15,3.77-14.18,7.76-21.25,11.68c-2.94,1.63-5.96,2.88-9.08,0.64c-3.14-2.26-3.52-5.59-2.8-9.07   c1.54-7.43,3.08-14.86,4.87-22.23c0.54-2.21,0.23-3.64-1.28-5.33C69.28,174.07,85.05,92.81,152.02,71.52   c52.41-16.66,106.58,14.25,118.23,68.02c11.3,52.19-21.53,102.28-75.33,110.92C190.01,251.25,185,251.36,180.04,251.78z    M227.28,176.72c9.57-0.06,17.33-7.88,17.28-17.41c-0.05-9.56-7.83-17.27-17.43-17.27c-9.6,0-17.39,7.68-17.48,17.23   C209.57,168.95,217.48,176.78,227.28,176.72z M133.36,142.04c-9.6,0-17.37,7.71-17.42,17.26c-0.05,9.55,7.68,17.35,17.25,17.42   c9.79,0.07,17.71-7.76,17.63-17.44C150.74,149.72,142.96,142.04,133.36,142.04z M197.57,159.48c0.04-9.69-7.53-17.38-17.15-17.44   c-9.68-0.06-17.41,7.47-17.52,17.07c-0.11,9.87,7.51,17.61,17.33,17.61C189.9,176.72,197.53,169.13,197.57,159.48z"></path>
	<path class="st0" d="M51.21,121.81c4.6-9.9,8.29-19.89,13.6-28.92c21.71-36.93,53.94-59.12,96.35-65.35   c64.93-9.53,125.91,28.89,146.22,91.33c0.4,1.24,1.74,3.02,2.74,3.08c21.26,1.36,31.42,15.07,36.46,33.55   c6.08,22.29,3.51,43.78-9.12,63.47c-6.04,9.42-14.1,16.95-25.91,17.57c-5.66,0.3-11.47-1.65-17.16-2.85   c-2.1-0.45-3.33-0.28-4.65,1.6c-18.77,26.7-43.92,44.38-75.43,52.98c-0.82,0.22-1.6,0.56-2.58,0.9c0,1.27,0.03,2.51-0.01,3.74   c-0.24,7.41-5.71,13.03-13.09,13.1c-12.22,0.11-24.45,0.1-36.68,0.01c-7.58-0.06-13.07-5.68-13.25-13.32   c-0.05-2.12-0.03-4.24-0.01-6.36c0.09-8.63,5.41-14.02,13.97-14.09c6.61-0.05,13.22-0.03,19.83-0.01   c26.95,0.08,50.39-9.39,70.89-26.45c14.34-11.93,25.26-26.61,31.65-44.15c2.56-7.02,3.14-14.79,4.4-22.25   c1.31-7.74,3.25-15.51,3.29-23.28c0.04-8.36-0.92-16.95-2.98-25.05c-13.6-53.54-63.85-89.12-118.96-84.68   c-52.97,4.27-96.52,46.18-103.04,98.73c-1.11,8.93,0.88,17.36,2.06,25.95c2.14,15.55,4.72,31.04,6.97,46.57   c1.33,9.16-1.5,13.55-10.38,16.19c-6.94,2.06-13.94,3.91-21.3,2.15c-9.69-2.32-16.74-8.44-21.8-16.52   c-14.55-23.27-16.61-47.99-6.03-73.21c5.26-12.53,15.15-20.83,28.79-23.89C48,121.91,50.02,121.93,51.21,121.81z"></path>
</g>
</svg>
